<svg width="162" height="162" viewBox="0 0 162 162" fill="none" xmlns="http://www.w3.org/2000/svg">
<circle cx="81" cy="81" r="81" fill="black" fill-opacity="0.741668"/>
<path d="M64.4033 99.1826C66.0522 99.1826 67.2769 98.2642 67.5347 96.8408H66.5518C66.3047 97.7378 65.4829 98.291 64.4033 98.291C62.9102 98.291 61.9756 97.0718 61.9756 95.1274C61.9756 93.1831 62.9102 91.9585 64.3979 91.9585C65.4668 91.9585 66.2939 92.5869 66.5518 93.5859H67.5347C67.3037 92.0928 66.0308 91.0669 64.3979 91.0669C62.2925 91.0669 60.9819 92.6245 60.9819 95.1274C60.9819 97.625 62.2979 99.1826 64.4033 99.1826ZM71.418 99.1021C73.0669 99.1021 74.0874 97.9634 74.0874 96.105C74.0874 94.2412 73.0669 93.1079 71.418 93.1079C69.769 93.1079 68.7485 94.2412 68.7485 96.105C68.7485 97.9634 69.769 99.1021 71.418 99.1021ZM71.418 98.2695C70.3223 98.2695 69.7046 97.4746 69.7046 96.105C69.7046 94.73 70.3223 93.9404 71.418 93.9404C72.5137 93.9404 73.1313 94.73 73.1313 96.105C73.1313 97.4746 72.5137 98.2695 71.418 98.2695ZM75.5376 99H76.4614V95.5732C76.4614 94.5581 77.0576 93.9404 77.9814 93.9404C78.9053 93.9404 79.3457 94.4346 79.3457 95.4766V99H80.2695V95.251C80.2695 93.876 79.5444 93.1079 78.2446 93.1079C77.3584 93.1079 76.7944 93.4839 76.5044 94.123H76.4185V93.21H75.5376V99ZM82.3481 91.7114V93.21H81.4136V93.9834H82.3481V97.4961C82.3481 98.6025 82.8262 99.043 84.0186 99.043C84.2012 99.043 84.3784 99.0215 84.561 98.9893V98.2104C84.3892 98.2266 84.2979 98.2319 84.1313 98.2319C83.5298 98.2319 83.272 97.9419 83.272 97.2598V93.9834H84.561V93.21H83.272V91.7114H82.3481ZM88.1812 93.9243C89.0996 93.9243 89.7119 94.6011 89.7334 95.627H86.543C86.6128 94.6011 87.2573 93.9243 88.1812 93.9243ZM89.7065 97.5015C89.4648 98.0117 88.96 98.2856 88.2134 98.2856C87.2305 98.2856 86.5913 97.5605 86.543 96.4165V96.3735H90.7056V96.019C90.7056 94.2197 89.7549 93.1079 88.1919 93.1079C86.6021 93.1079 85.5815 94.2896 85.5815 96.1104C85.5815 97.9419 86.5859 99.1021 88.1919 99.1021C89.4595 99.1021 90.3511 98.4951 90.6304 97.5015H89.7065ZM92.1558 99H93.0796V95.5732C93.0796 94.5581 93.6758 93.9404 94.5996 93.9404C95.5234 93.9404 95.9639 94.4346 95.9639 95.4766V99H96.8877V95.251C96.8877 93.876 96.1626 93.1079 94.8628 93.1079C93.9766 93.1079 93.4126 93.4839 93.1226 94.123H93.0366V93.21H92.1558V99ZM98.9663 91.7114V93.21H98.0317V93.9834H98.9663V97.4961C98.9663 98.6025 99.4443 99.043 100.637 99.043C100.819 99.043 100.997 99.0215 101.179 98.9893V98.2104C101.007 98.2266 100.916 98.2319 100.75 98.2319C100.148 98.2319 99.8901 97.9419 99.8901 97.2598V93.9834H101.179V93.21H99.8901V91.7114H98.9663ZM49.6812 107.794C49.6812 108.632 50.1753 109.1 51.2603 109.363L52.2539 109.604C52.8716 109.755 53.1724 110.023 53.1724 110.421C53.1724 110.953 52.6138 111.323 51.835 111.323C51.0938 111.323 50.6318 111.012 50.4761 110.523H49.5254C49.6274 111.484 50.5137 112.102 51.8027 112.102C53.1187 112.102 54.123 111.388 54.123 110.351C54.123 109.519 53.5967 109.046 52.5063 108.783L51.6147 108.568C50.9326 108.401 50.6104 108.154 50.6104 107.757C50.6104 107.241 51.1475 106.892 51.835 106.892C52.5332 106.892 52.9844 107.198 53.1079 107.66H54.021C53.8975 106.709 53.0542 106.108 51.8403 106.108C50.6104 106.108 49.6812 106.833 49.6812 107.794ZM60.2568 106.21H59.333V109.637C59.333 110.652 58.7744 111.259 57.7539 111.259C56.8301 111.259 56.4434 110.775 56.4434 109.733V106.21H55.5195V109.959C55.5195 111.329 56.1963 112.102 57.4961 112.102C58.3823 112.102 59 111.737 59.29 111.092H59.376V112H60.2568V106.21ZM66.7881 107.982C66.627 106.951 65.7676 106.108 64.3604 106.108C62.7383 106.108 61.707 107.279 61.707 109.083C61.707 110.926 62.7437 112.102 64.3657 112.102C65.7568 112.102 66.6216 111.318 66.7881 110.254H65.8535C65.6816 110.91 65.1392 111.27 64.3604 111.27C63.3291 111.27 62.6631 110.421 62.6631 109.083C62.6631 107.773 63.3184 106.94 64.3604 106.94C65.1929 106.94 65.7031 107.408 65.8535 107.982H66.7881ZM72.9434 107.982C72.7822 106.951 71.9229 106.108 70.5156 106.108C68.8936 106.108 67.8623 107.279 67.8623 109.083C67.8623 110.926 68.8989 112.102 70.521 112.102C71.9121 112.102 72.7769 111.318 72.9434 110.254H72.0088C71.8369 110.91 71.2944 111.27 70.5156 111.27C69.4844 111.27 68.8184 110.421 68.8184 109.083C68.8184 107.773 69.4736 106.94 70.5156 106.94C71.3481 106.94 71.8584 107.408 72.0088 107.982H72.9434ZM76.6172 106.924C77.5356 106.924 78.1479 107.601 78.1694 108.627H74.979C75.0488 107.601 75.6934 106.924 76.6172 106.924ZM78.1426 110.501C77.9009 111.012 77.396 111.286 76.6494 111.286C75.6665 111.286 75.0273 110.561 74.979 109.417V109.374H79.1416V109.019C79.1416 107.22 78.1909 106.108 76.6279 106.108C75.0381 106.108 74.0176 107.29 74.0176 109.11C74.0176 110.942 75.022 112.102 76.6279 112.102C77.8955 112.102 78.7871 111.495 79.0664 110.501H78.1426ZM80.4575 107.794C80.4575 108.632 80.9517 109.1 82.0366 109.363L83.0303 109.604C83.6479 109.755 83.9487 110.023 83.9487 110.421C83.9487 110.953 83.3901 111.323 82.6113 111.323C81.8701 111.323 81.4082 111.012 81.2524 110.523H80.3018C80.4038 111.484 81.29 112.102 82.5791 112.102C83.895 112.102 84.8994 111.388 84.8994 110.351C84.8994 109.519 84.373 109.046 83.2827 108.783L82.3911 108.568C81.709 108.401 81.3867 108.154 81.3867 107.757C81.3867 107.241 81.9238 106.892 82.6113 106.892C83.3096 106.892 83.7607 107.198 83.8843 107.66H84.7974C84.6738 106.709 83.8306 106.108 82.6167 106.108C81.3867 106.108 80.4575 106.833 80.4575 107.794ZM86.1079 107.794C86.1079 108.632 86.6021 109.1 87.687 109.363L88.6807 109.604C89.2983 109.755 89.5991 110.023 89.5991 110.421C89.5991 110.953 89.0405 111.323 88.2617 111.323C87.5205 111.323 87.0586 111.012 86.9028 110.523H85.9521C86.0542 111.484 86.9404 112.102 88.2295 112.102C89.5454 112.102 90.5498 111.388 90.5498 110.351C90.5498 109.519 90.0234 109.046 88.9331 108.783L88.0415 108.568C87.3594 108.401 87.0371 108.154 87.0371 107.757C87.0371 107.241 87.5742 106.892 88.2617 106.892C88.96 106.892 89.4111 107.198 89.5347 107.66H90.4478C90.3242 106.709 89.481 106.108 88.2671 106.108C87.0371 106.108 86.1079 106.833 86.1079 107.794ZM92.3867 112H93.3105V106.983H94.6372V106.21H93.3105V105.592C93.3105 104.958 93.5898 104.636 94.2559 104.636C94.4224 104.636 94.5781 104.642 94.6909 104.663V103.911C94.4976 103.874 94.2935 103.857 94.0679 103.857C92.9668 103.857 92.3867 104.411 92.3867 105.565V106.21H91.4253V106.983H92.3867V112ZM100.669 106.21H99.7451V109.637C99.7451 110.652 99.1865 111.259 98.166 111.259C97.2422 111.259 96.8555 110.775 96.8555 109.733V106.21H95.9316V109.959C95.9316 111.329 96.6084 112.102 97.9082 112.102C98.7944 112.102 99.4121 111.737 99.7021 111.092H99.7881V112H100.669V106.21ZM102.463 112H103.387V103.911H102.463V112ZM105.234 112H106.158V103.911H105.234V112ZM108.446 114.095C109.472 114.095 109.934 113.697 110.428 112.354L112.689 106.21H111.707L110.122 110.974H110.036L108.446 106.21H107.447L109.59 112.005L109.483 112.349C109.241 113.047 108.951 113.3 108.419 113.3C108.291 113.3 108.146 113.294 108.033 113.273V114.062C108.162 114.084 108.323 114.095 108.446 114.095ZM64.1938 125H65.1177V121.573C65.1177 120.596 65.687 119.94 66.7236 119.94C67.5991 119.94 68.061 120.451 68.061 121.477V125H68.9849V121.251C68.9849 119.892 68.2114 119.108 66.9868 119.108C66.1006 119.108 65.4937 119.484 65.2036 120.123H65.1177V116.911H64.1938V125ZM70.6929 125H71.6167V119.21H70.6929V125ZM71.1548 118.034C71.5093 118.034 71.7993 117.744 71.7993 117.389C71.7993 117.035 71.5093 116.745 71.1548 116.745C70.8003 116.745 70.5103 117.035 70.5103 117.389C70.5103 117.744 70.8003 118.034 71.1548 118.034ZM75.5215 125.102C76.3218 125.102 77.0093 124.721 77.3745 124.076H77.4604V125H78.3413V116.911H77.4175V120.123H77.3369C77.0093 119.489 76.3271 119.108 75.5215 119.108C74.0498 119.108 73.0884 120.29 73.0884 122.105C73.0884 123.926 74.0391 125.102 75.5215 125.102ZM75.7363 119.94C76.7837 119.94 77.439 120.778 77.439 122.105C77.439 123.442 76.7891 124.27 75.7363 124.27C74.6782 124.27 74.0444 123.458 74.0444 122.105C74.0444 120.757 74.6836 119.94 75.7363 119.94ZM82.2783 125.102C83.0786 125.102 83.7661 124.721 84.1313 124.076H84.2173V125H85.0981V116.911H84.1743V120.123H84.0938C83.7661 119.489 83.084 119.108 82.2783 119.108C80.8066 119.108 79.8452 120.29 79.8452 122.105C79.8452 123.926 80.7959 125.102 82.2783 125.102ZM82.4932 119.94C83.5405 119.94 84.1958 120.778 84.1958 122.105C84.1958 123.442 83.5459 124.27 82.4932 124.27C81.4351 124.27 80.8013 123.458 80.8013 122.105C80.8013 120.757 81.4404 119.94 82.4932 119.94ZM89.2017 119.924C90.1201 119.924 90.7324 120.601 90.7539 121.627H87.5635C87.6333 120.601 88.2778 119.924 89.2017 119.924ZM90.7271 123.501C90.4854 124.012 89.9805 124.286 89.2339 124.286C88.251 124.286 87.6118 123.561 87.5635 122.417V122.374H91.7261V122.019C91.7261 120.22 90.7754 119.108 89.2124 119.108C87.6226 119.108 86.6021 120.29 86.6021 122.11C86.6021 123.942 87.6064 125.102 89.2124 125.102C90.48 125.102 91.3716 124.495 91.6509 123.501H90.7271ZM93.1763 125H94.1001V121.573C94.1001 120.558 94.6963 119.94 95.6201 119.94C96.5439 119.94 96.9844 120.435 96.9844 121.477V125H97.9082V121.251C97.9082 119.876 97.1831 119.108 95.8833 119.108C94.9971 119.108 94.4331 119.484 94.1431 120.123H94.0571V119.21H93.1763V125Z" fill="white"/>
<path d="M74.3441 65.6058L103.656 44.7036" stroke="#F7B500" stroke-width="1.5" stroke-linecap="round" stroke-linejoin="round"/>
<path d="M62.7572 52.5487L73.6578 65.8976" stroke="#F7B500" stroke-width="1.5" stroke-linecap="round" stroke-linejoin="round"/>
</svg>
